<?xml version="1.0" encoding="UTF-8" standalone="no"?>
<!DOCTYPE svg PUBLIC "-//W3C//DTD SVG 1.1//EN" "http://www.w3.org/Graphics/SVG/1.1/DTD/svg11.dtd">
<svg version="1.1" xmlns="http://www.w3.org/2000/svg" xmlns:xlink="http://www.w3.org/1999/xlink" preserveAspectRatio="xMidYMid meet" viewBox="0 0 640 640" width="160" height="160"><defs><path d="M206.11 154.18C195.45 161.51 185.52 169.85 176.49 179.05C181.19 183.46 218.78 218.72 223.48 223.13C228.98 217.63 234.97 212.61 241.36 208.13C234.31 197.34 209.63 159.57 206.11 154.18Z" id="hybrV0vFJ"></path><linearGradient id="gradienta22vNNvKmj" gradientUnits="userSpaceOnUse" x1="172.48" y1="152.24" x2="217.32" y2="219.95"><stop style="stop-color: #ff9458;stop-opacity: 1" offset="0%"></stop><stop style="stop-color: #ff5656;stop-opacity: 1" offset="100%"></stop></linearGradient><path d="M156.25 203.11C148.78 213.58 142.28 224.77 136.89 236.62C142.81 239.15 190.23 259.44 196.15 261.97C199.47 254.88 203.38 248.11 207.83 241.77C197.52 234.04 161.41 206.98 156.25 203.11Z" id="cC40VQwyt"></path><linearGradient id="gradienth1Pg2VTbSy" gradientUnits="userSpaceOnUse" x1="132.5" y1="201.46" x2="166.43" y2="267.07"><stop style="stop-color: #ff9458;stop-opacity: 1" offset="0%"></stop><stop style="stop-color: #ff5656;stop-opacity: 1" offset="100%"></stop></linearGradient><path d="M126.1 266.16C122.7 278.43 120.43 291.16 119.43 304.27C125.87 304.63 177.34 307.48 183.77 307.83C184.47 299.96 185.85 292.27 187.79 284.82C175.45 281.09 132.26 268.02 126.1 266.16Z" id="b4d8YDGZBh"></path><linearGradient id="gradientbVmwiiRxH" gradientUnits="userSpaceOnUse" x1="115.21" y1="264.98" x2="134.76" y2="316.44"><stop style="stop-color: #ff9458;stop-opacity: 1" offset="0%"></stop><stop style="stop-color: #ff5656;stop-opacity: 1" offset="100%"></stop></linearGradient><path d="M119.43 335.73C120.43 348.81 122.7 361.57 126.1 373.84C132.26 371.98 181.62 357.04 187.79 355.18C185.85 347.73 184.47 340.04 183.77 332.17C170.9 332.88 125.87 335.37 119.43 335.73Z" id="a22UcGpjai"></path><linearGradient id="gradientf1Oi1HRPf" gradientUnits="userSpaceOnUse" x1="115.21" y1="331" x2="134.76" y2="382.45"><stop style="stop-color: #ff9458;stop-opacity: 1" offset="0%"></stop><stop style="stop-color: #ff5656;stop-opacity: 1" offset="100%"></stop></linearGradient><path d="M136.86 403.36C142.25 415.17 148.76 426.39 156.23 436.86C161.39 433 202.65 402.09 207.81 398.23C203.38 391.86 199.47 385.12 196.13 378.03C184.27 383.09 142.79 400.82 136.86 403.36Z" id="jdfAM4Z3"></path><linearGradient id="gradientaiWe3N1KJ" gradientUnits="userSpaceOnUse" x1="132.47" y1="376.37" x2="166.38" y2="441.97"><stop style="stop-color: #ff9458;stop-opacity: 1" offset="0%"></stop><stop style="stop-color: #ff5656;stop-opacity: 1" offset="100%"></stop></linearGradient><path d="M176.49 460.95C185.52 470.15 195.45 478.51 206.11 485.82C209.63 480.43 237.84 437.27 241.36 431.87C234.97 427.39 228.98 422.37 223.48 416.87C214.08 425.69 181.19 456.54 176.49 460.95Z" id="a4jX0xa7ee"></path><linearGradient id="gradientavYPcO1Xp" gradientUnits="userSpaceOnUse" x1="172.48" y1="414.93" x2="217.32" y2="482.64"><stop style="stop-color: #ff9458;stop-opacity: 1" offset="0%"></stop><stop style="stop-color: #ff5656;stop-opacity: 1" offset="100%"></stop></linearGradient><path d="M269.69 514.82C271.16 508.55 282.9 458.32 284.37 452.05C276.78 450 269.45 447.33 262.43 444.06C260.49 447.9 250.79 467.07 233.33 501.58C249.13 508.23 261.26 512.65 269.69 514.82Z" id="b6kqgogFlS"></path><linearGradient id="gradientb75PnwRRg" gradientUnits="userSpaceOnUse" x1="230.17" y1="442.08" x2="279.63" y2="499.31"><stop style="stop-color: #ff9458;stop-opacity: 1" offset="0%"></stop><stop style="stop-color: #ff5656;stop-opacity: 1" offset="100%"></stop></linearGradient><path d="M308.35 456.26C307.58 462.66 301.43 513.85 300.66 520.25C307.03 520.86 313.47 521.16 320 521.16C326.53 521.16 332.98 520.84 339.34 520.25C338.58 513.85 332.45 462.66 331.68 456.26C327.82 456.58 323.94 456.74 320 456.74C316.06 456.74 312.18 456.58 308.35 456.26Z" id="l290NIpvly"></path><linearGradient id="gradientaPcZ1LnqU" gradientUnits="userSpaceOnUse" x1="298.27" y1="454.43" x2="344.07" y2="498.24"><stop style="stop-color: #ff9458;stop-opacity: 1" offset="0%"></stop><stop style="stop-color: #ff5656;stop-opacity: 1" offset="100%"></stop></linearGradient><path d="M370.31 514.82C382.94 511.56 395.1 507.11 406.65 501.58C403.74 495.82 380.45 449.82 377.54 444.06C370.58 447.33 363.24 450.03 355.64 452.05C358.57 464.6 368.84 508.55 370.31 514.82Z" id="h10fFmsGI0"></path><linearGradient id="gradientahgDmx4aH" gradientUnits="userSpaceOnUse" x1="352.48" y1="442.08" x2="401.94" y2="499.29"><stop style="stop-color: #ff9458;stop-opacity: 1" offset="0%"></stop><stop style="stop-color: #ff5656;stop-opacity: 1" offset="100%"></stop></linearGradient><path d="M433.92 485.82C444.58 478.48 454.5 470.15 463.54 460.95C458.84 456.54 421.25 421.28 416.55 416.87C411.02 422.37 405.03 427.39 398.66 431.87C405.72 442.66 430.4 480.43 433.92 485.82Z" id="cRcBDcist"></path><linearGradient id="gradiente9fgLvOui" gradientUnits="userSpaceOnUse" x1="394.65" y1="414.93" x2="439.5" y2="482.64"><stop style="stop-color: #ff9458;stop-opacity: 1" offset="0%"></stop><stop style="stop-color: #ff5656;stop-opacity: 1" offset="100%"></stop></linearGradient><path d="M483.75 436.86C491.22 426.39 497.72 415.2 503.11 403.36C497.19 400.82 449.77 380.56 443.85 378.03C440.53 385.12 436.62 391.86 432.17 398.23C442.48 405.96 478.59 433 483.75 436.86Z" id="icP0xwbmS"></path><linearGradient id="gradiente1aRw1DgK" gradientUnits="userSpaceOnUse" x1="427.78" y1="376.37" x2="461.69" y2="441.97"><stop style="stop-color: #ff9458;stop-opacity: 1" offset="0%"></stop><stop style="stop-color: #ff5656;stop-opacity: 1" offset="100%"></stop></linearGradient><path d="M513.91 373.82C517.31 361.54 519.57 348.81 520.57 335.7C514.13 335.34 462.67 332.5 456.23 332.14C455.53 340.04 454.16 347.73 452.21 355.15C464.55 358.88 507.74 371.95 513.91 373.82Z" id="eJwvD9iZy"></path><linearGradient id="gradientc18jDDPVvM" gradientUnits="userSpaceOnUse" x1="447.99" y1="330.97" x2="467.54" y2="382.42"><stop style="stop-color: #ff9458;stop-opacity: 1" offset="0%"></stop><stop style="stop-color: #ff5656;stop-opacity: 1" offset="100%"></stop></linearGradient><path d="M520.57 304.27C519.57 291.19 517.31 278.43 513.91 266.16C507.74 268.02 458.38 282.96 452.21 284.82C454.16 292.27 455.53 299.96 456.23 307.83C469.1 307.12 514.13 304.63 520.57 304.27Z" id="aANAURSiD"></path><linearGradient id="gradientf4FmvdMJMZ" gradientUnits="userSpaceOnUse" x1="447.99" y1="264.98" x2="467.54" y2="316.44"><stop style="stop-color: #ff9458;stop-opacity: 1" offset="0%"></stop><stop style="stop-color: #ff5656;stop-opacity: 1" offset="100%"></stop></linearGradient><path d="M503.11 236.62C497.72 224.8 491.22 213.58 483.75 203.11C478.59 206.98 437.33 237.9 432.17 241.77C436.62 248.11 440.53 254.88 443.85 261.97C455.7 256.9 497.19 239.15 503.11 236.62Z" id="clHcDEJJ"></path><linearGradient id="gradientb5KB2vQya2" gradientUnits="userSpaceOnUse" x1="427.78" y1="201.46" x2="461.71" y2="267.07"><stop style="stop-color: #ff9458;stop-opacity: 1" offset="0%"></stop><stop style="stop-color: #ff5656;stop-opacity: 1" offset="100%"></stop></linearGradient><path d="M463.52 179.05C454.48 169.85 444.55 161.49 433.89 154.18C430.37 159.57 402.16 202.73 398.64 208.13C405.03 212.61 411.02 217.63 416.52 223.13C425.92 214.31 458.82 183.46 463.52 179.05Z" id="e1NchCSKwQ"></path><linearGradient id="gradientce5P3y2mr" gradientUnits="userSpaceOnUse" x1="394.63" y1="152.24" x2="439.47" y2="219.95"><stop style="stop-color: #ff9458;stop-opacity: 1" offset="0%"></stop><stop style="stop-color: #ff5656;stop-opacity: 1" offset="100%"></stop></linearGradient><path d="M370.31 125.18C368.84 131.45 357.1 181.67 355.64 187.95C363.22 190 370.55 192.67 377.57 195.94C379.51 192.1 389.21 172.93 406.68 138.42C390.87 131.77 378.75 127.35 370.31 125.18Z" id="c4ppodQOSg"></path><linearGradient id="gradienti19fWlVYzj" gradientUnits="userSpaceOnUse" x1="352.48" y1="123.19" x2="401.93" y2="180.43"><stop style="stop-color: #ff9458;stop-opacity: 1" offset="0%"></stop><stop style="stop-color: #ff5656;stop-opacity: 1" offset="100%"></stop></linearGradient><path d="M331.68 183.74C332.45 177.34 338.58 126.15 339.34 119.76C332.98 119.13 326.53 118.84 320 118.84C313.47 118.84 307.03 119.16 300.66 119.76C301.43 126.15 307.58 177.34 308.35 183.74C312.18 183.42 316.06 183.26 320 183.26C323.94 183.26 327.82 183.42 331.68 183.74Z" id="e1Bzc9xNet"></path><linearGradient id="gradientasL13hnYv" gradientUnits="userSpaceOnUse" x1="298.27" y1="117.01" x2="344.07" y2="160.82"><stop style="stop-color: #ff9458;stop-opacity: 1" offset="0%"></stop><stop style="stop-color: #ff5656;stop-opacity: 1" offset="100%"></stop></linearGradient><path d="M269.69 125.18C257.07 128.41 244.9 132.89 233.33 138.42C236.24 144.17 259.52 190.18 262.43 195.94C269.42 192.67 276.76 189.97 284.37 187.92C281.43 175.37 271.16 131.45 269.69 125.18Z" id="f4JlTHQUuf"></path><linearGradient id="gradientb12aZ3GGje" gradientUnits="userSpaceOnUse" x1="230.17" y1="123.19" x2="279.62" y2="180.43"><stop style="stop-color: #ff9458;stop-opacity: 1" offset="0%"></stop><stop style="stop-color: #ff5656;stop-opacity: 1" offset="100%"></stop></linearGradient><path d="M307.86 183.77C304 184.12 300.15 184.63 296.29 185.31C292.43 185.98 288.6 186.82 284.88 187.82C286.03 191.63 295.24 222.1 296.4 225.91C300.85 224.8 305.41 223.99 310.05 223.51C309.61 215.56 308.08 187.74 307.86 183.77Z" id="b1dsktNAtW"></path><linearGradient id="gradientfblHFzoFT" gradientUnits="userSpaceOnUse" x1="283.32" y1="182.59" x2="313.06" y2="211.09"><stop style="stop-color: #ff9458;stop-opacity: 1" offset="0%"></stop><stop style="stop-color: #ff5656;stop-opacity: 1" offset="100%"></stop></linearGradient><path d="M343.66 225.91C344.81 222.1 354.05 191.63 355.2 187.82C347.73 185.82 340.04 184.44 332.22 183.77C332.07 186.42 331.34 199.66 330.01 223.51C336.14 224.37 340.69 225.17 343.66 225.91Z" id="f3ktThKb"></path><linearGradient id="gradientc1YVnlez9" gradientUnits="userSpaceOnUse" x1="328.45" y1="182.59" x2="358.19" y2="211.12"><stop style="stop-color: #ff9458;stop-opacity: 1" offset="0%"></stop><stop style="stop-color: #ff5656;stop-opacity: 1" offset="100%"></stop></linearGradient><path d="M374.41 239.66C376.8 236.48 395.87 211.02 398.26 207.83C391.87 203.38 385.12 199.47 378.05 196.15C377.01 198.59 371.79 210.78 362.41 232.73C367.86 235.63 371.86 237.94 374.41 239.66Z" id="beJklru4D"></path><linearGradient id="gradientdm3Gqw3g6" gradientUnits="userSpaceOnUse" x1="360.19" y1="194.93" x2="389.77" y2="234.03"><stop style="stop-color: #ff9458;stop-opacity: 1" offset="0%"></stop><stop style="stop-color: #ff5656;stop-opacity: 1" offset="100%"></stop></linearGradient><path d="M398.58 263.11C401.92 260.93 428.59 243.51 431.93 241.34C427.42 234.94 422.4 228.96 416.9 223.48C415.08 225.41 406.01 235.09 389.68 252.51C393.82 257.07 396.78 260.61 398.58 263.11Z" id="h6HWriFiU"></path><linearGradient id="gradientd2L3VS4XNi" gradientUnits="userSpaceOnUse" x1="387.07" y1="222.37" x2="411.46" y2="264.09"><stop style="stop-color: #ff9458;stop-opacity: 1" offset="0%"></stop><stop style="stop-color: #ff5656;stop-opacity: 1" offset="100%"></stop></linearGradient><path d="M408.56 280.4C410.45 284.61 412.04 288.95 413.31 293.43C417.18 292.52 448.15 285.3 452.02 284.39C450 276.76 447.33 269.42 444.09 262.43C436.99 266.03 412.12 278.6 408.56 280.4Z" id="a69CQVMwOa"></path><linearGradient id="gradientb2gbIcV6r1" gradientUnits="userSpaceOnUse" x1="405.88" y1="261.56" x2="422.13" y2="298.13"><stop style="stop-color: #ff9458;stop-opacity: 1" offset="0%"></stop><stop style="stop-color: #ff5656;stop-opacity: 1" offset="100%"></stop></linearGradient><path d="M416.76 313.07C416.93 315.36 417.01 317.68 417.01 320C417.01 322.32 416.93 324.64 416.76 326.93C420.72 327.41 452.33 331.21 456.29 331.68C456.93 324.05 456.96 316.22 456.26 308.35C448.36 309.29 420.71 312.59 416.76 313.07Z" id="c2EAePz0LY"></path><linearGradient id="gradientd8THL3xL3" gradientUnits="userSpaceOnUse" x1="414.29" y1="307.69" x2="424.88" y2="336.81"><stop style="stop-color: #ff9458;stop-opacity: 1" offset="0%"></stop><stop style="stop-color: #ff5656;stop-opacity: 1" offset="100%"></stop></linearGradient><path d="M413.34 346.63C412.07 351.1 410.48 355.47 408.59 359.66C412.14 361.45 440.52 375.8 444.06 377.59C447.33 370.55 450 363.24 452.05 355.69C444.31 353.88 417.21 347.53 413.34 346.63Z" id="c1H30PtPoP"></path><linearGradient id="gradientaciraUKdl" gradientUnits="userSpaceOnUse" x1="405.91" y1="345.76" x2="422.13" y2="382.3"><stop style="stop-color: #ff9458;stop-opacity: 1" offset="0%"></stop><stop style="stop-color: #ff5656;stop-opacity: 1" offset="100%"></stop></linearGradient><path d="M398.61 376.92C395.89 380.67 392.92 384.23 389.68 387.55C392.4 390.45 414.15 413.67 416.87 416.58C422.38 411.02 427.39 405.03 431.87 398.66C425.22 394.31 401.94 379.09 398.61 376.92Z" id="b58SaWimip"></path><linearGradient id="gradientbKVrKEiK8" gradientUnits="userSpaceOnUse" x1="387.07" y1="375.81" x2="411.51" y2="417.52"><stop style="stop-color: #ff9458;stop-opacity: 1" offset="0%"></stop><stop style="stop-color: #ff5656;stop-opacity: 1" offset="100%"></stop></linearGradient><path d="M374.41 400.36C370.61 402.95 366.59 405.27 362.41 407.29C363.97 410.95 376.46 440.19 378.03 443.85C385.12 440.56 391.89 436.62 398.23 432.19C393.47 425.83 376.79 403.55 374.41 400.36Z" id="a30Zcgbi4M"></path><linearGradient id="gradientj2KbFXO1zw" gradientUnits="userSpaceOnUse" x1="360.19" y1="399.14" x2="389.75" y2="438.21"><stop style="stop-color: #ff9458;stop-opacity: 1" offset="0%"></stop><stop style="stop-color: #ff5656;stop-opacity: 1" offset="100%"></stop></linearGradient><path d="M332.14 456.23C335.97 455.88 339.86 455.37 343.71 454.69C347.6 454.02 351.4 453.18 355.12 452.18C353.97 448.38 344.78 417.95 343.63 414.15C339.18 415.25 334.62 416.06 329.96 416.55C330.39 424.48 331.92 452.26 332.14 456.23Z" id="bBWeA0eIu"></path><linearGradient id="gradiente1y6EnnAHH" gradientUnits="userSpaceOnUse" x1="328.4" y1="412.97" x2="358.1" y2="441.47"><stop style="stop-color: #ff9458;stop-opacity: 1" offset="0%"></stop><stop style="stop-color: #ff5656;stop-opacity: 1" offset="100%"></stop></linearGradient><path d="M296.34 414.12C295.19 417.92 285.98 448.35 284.82 452.16C292.3 454.15 299.98 455.53 307.81 456.23C307.95 453.58 308.68 440.35 309.99 416.52C303.84 415.66 299.29 414.86 296.34 414.12Z" id="a2lyr4Lsyp"></path><linearGradient id="gradientj1U0rWiVtF" gradientUnits="userSpaceOnUse" x1="283.27" y1="412.94" x2="312.99" y2="441.44"><stop style="stop-color: #ff9458;stop-opacity: 1" offset="0%"></stop><stop style="stop-color: #ff5656;stop-opacity: 1" offset="100%"></stop></linearGradient><path d="M265.59 400.34C263.21 403.52 244.15 428.96 241.77 432.14C248.16 436.59 254.91 440.5 261.97 443.82C263.02 441.39 268.22 429.21 277.59 407.29C272.13 404.38 268.13 402.06 265.59 400.34Z" id="bfNjMjbuI"></path><linearGradient id="gradientbxqkJAATN" gradientUnits="userSpaceOnUse" x1="239.56" y1="399.11" x2="269.11" y2="438.19"><stop style="stop-color: #ff9458;stop-opacity: 1" offset="0%"></stop><stop style="stop-color: #ff5656;stop-opacity: 1" offset="100%"></stop></linearGradient><path d="M250.32 387.49C247.11 384.18 244.12 380.62 241.42 376.87C238.09 379.04 211.44 396.43 208.1 398.61C212.58 405.03 217.6 411.02 223.1 416.49C228.55 410.69 247.6 390.39 250.32 387.49Z" id="c1w7XjBjY"></path><linearGradient id="gradiente4wtRItpa3" gradientUnits="userSpaceOnUse" x1="205.49" y1="375.75" x2="229.89" y2="417.46"><stop style="stop-color: #ff9458;stop-opacity: 1" offset="0%"></stop><stop style="stop-color: #ff5656;stop-opacity: 1" offset="100%"></stop></linearGradient><path d="M226.66 346.57C222.79 347.48 191.82 354.71 187.95 355.61C190 363.24 192.67 370.58 195.91 377.54C198.28 376.34 210.11 370.36 231.41 359.6C229.09 353.9 227.51 349.56 226.66 346.57Z" id="bbq1NDZBK"></path><linearGradient id="gradientc2WN1Jol6t" gradientUnits="userSpaceOnUse" x1="185.27" y1="345.7" x2="201.5" y2="382.25"><stop style="stop-color: #ff9458;stop-opacity: 1" offset="0%"></stop><stop style="stop-color: #ff5656;stop-opacity: 1" offset="100%"></stop></linearGradient><path d="M223.24 326.91C223.08 324.64 222.99 322.35 222.99 320.03C222.99 317.68 223.08 315.36 223.24 313.04C219.28 312.57 187.67 308.77 183.72 308.29C183.07 315.95 183.04 323.75 183.74 331.63C191.64 330.68 219.29 327.38 223.24 326.91Z" id="fjLnvnHyb"></path><linearGradient id="gradienta83UMnfI7L" gradientUnits="userSpaceOnUse" x1="180.75" y1="307.64" x2="191.34" y2="336.76"><stop style="stop-color: #ff9458;stop-opacity: 1" offset="0%"></stop><stop style="stop-color: #ff5656;stop-opacity: 1" offset="100%"></stop></linearGradient><path d="M226.69 293.37C227.96 288.9 229.55 284.53 231.44 280.34C227.89 278.55 199.51 264.18 195.96 262.38C192.67 269.42 190 276.76 187.95 284.31C195.7 286.12 222.82 292.47 226.69 293.37Z" id="d58EL4S9Bn"></path><linearGradient id="gradientcdY5Xfx6O" gradientUnits="userSpaceOnUse" x1="185.26" y1="261.51" x2="201.51" y2="298.08"><stop style="stop-color: #ff9458;stop-opacity: 1" offset="0%"></stop><stop style="stop-color: #ff5656;stop-opacity: 1" offset="100%"></stop></linearGradient><path d="M241.42 263.11C244.14 259.36 247.11 255.82 250.35 252.51C247.63 249.6 225.85 226.38 223.13 223.48C217.63 228.98 212.61 234.97 208.13 241.34C214.79 245.69 238.09 260.93 241.42 263.11Z" id="hGER3zuX8"></path><linearGradient id="gradientb5rng6avW" gradientUnits="userSpaceOnUse" x1="205.52" y1="222.37" x2="229.92" y2="264.08"><stop style="stop-color: #ff9458;stop-opacity: 1" offset="0%"></stop><stop style="stop-color: #ff5656;stop-opacity: 1" offset="100%"></stop></linearGradient><path d="M262 196.13C254.88 199.47 248.14 203.38 241.8 207.81C244.18 210.99 263.28 236.48 265.67 239.66C269.45 237.08 273.47 234.75 277.65 232.73C274.52 225.41 263.57 199.79 262 196.13Z" id="c44EVggjgl"></path><linearGradient id="gradientb2dNDscPbe" gradientUnits="userSpaceOnUse" x1="239.58" y1="194.9" x2="269.18" y2="234.01"><stop style="stop-color: #ff9458;stop-opacity: 1" offset="0%"></stop><stop style="stop-color: #ff5656;stop-opacity: 1" offset="100%"></stop></linearGradient><path d="M316.79 253.99C317.84 253.94 318.9 253.91 319.97 253.91C321.08 253.91 322.19 253.94 323.29 253.99C323.66 250.91 326.62 226.31 326.99 223.24C322.32 222.91 317.68 222.91 313.12 223.24C313.86 229.39 316.42 250.91 316.79 253.99Z" id="b243mtXKib"></path><linearGradient id="gradientc197CTGiTr" gradientUnits="userSpaceOnUse" x1="312.27" y1="222.12" x2="333.01" y2="237.01"><stop style="stop-color: #ff9458;stop-opacity: 1" offset="0%"></stop><stop style="stop-color: #ff5656;stop-opacity: 1" offset="100%"></stop></linearGradient><path d="M339.56 256.85C341.64 257.5 343.69 258.22 345.66 259.09C347.06 256.33 358.26 234.23 359.66 231.46C355.47 229.6 351.13 228.01 346.63 226.72C345.21 232.74 340.27 253.84 339.56 256.85Z" id="a6rTXqUIg3"></path><linearGradient id="gradienta8aHVsqry" gradientUnits="userSpaceOnUse" x1="338.32" y1="225.81" x2="361.18" y2="248.59"><stop style="stop-color: #ff9458;stop-opacity: 1" offset="0%"></stop><stop style="stop-color: #ff5656;stop-opacity: 1" offset="100%"></stop></linearGradient><path d="M387.55 250.35C384.26 247.14 380.7 244.14 376.95 241.42C375.25 244.01 361.68 264.77 359.98 267.37C361.68 268.69 363.32 270.09 364.92 271.55C369.44 267.31 385.29 252.47 387.55 250.35Z" id="c9x1t5IAt"></path><linearGradient id="gradientcfhphoVjp" gradientUnits="userSpaceOnUse" x1="358.28" y1="240.57" x2="378.08" y2="269.65"><stop style="stop-color: #ff9458;stop-opacity: 1" offset="0%"></stop><stop style="stop-color: #ff5656;stop-opacity: 1" offset="100%"></stop></linearGradient><path d="M400.34 265.67C397.85 267.53 378 282.37 375.52 284.23C376.68 286.04 377.76 287.93 378.75 289.84C380.66 289.03 390.16 284.97 407.27 277.67C404.37 272.23 402.06 268.22 400.34 265.67Z" id="a3twps3Hqr"></path><linearGradient id="gradientb9EtjNXz6" gradientUnits="userSpaceOnUse" x1="373.56" y1="264.99" x2="386.78" y2="292.86"><stop style="stop-color: #ff9458;stop-opacity: 1" offset="0%"></stop><stop style="stop-color: #ff5656;stop-opacity: 1" offset="100%"></stop></linearGradient><path d="M384.42 305.38C384.88 307.48 385.28 309.61 385.53 311.77C388.63 311.6 413.42 310.24 416.52 310.07C416.06 305.43 415.23 300.87 414.12 296.4C408.18 298.19 387.39 304.48 384.42 305.38Z" id="i8MrPlF6P"></path><linearGradient id="gradientbdcH5EF9K" gradientUnits="userSpaceOnUse" x1="382.44" y1="295.96" x2="388.39" y2="315.91"><stop style="stop-color: #ff9458;stop-opacity: 1" offset="0%"></stop><stop style="stop-color: #ff5656;stop-opacity: 1" offset="100%"></stop></linearGradient><path d="M416.49 330.01C413.39 329.84 388.6 328.45 385.5 328.28C385.23 330.44 384.85 332.57 384.37 334.65C387.34 335.55 411.1 342.76 414.07 343.66C414.66 341.45 415.15 339.18 415.52 336.89C415.93 334.59 416.25 332.3 416.49 330.01Z" id="atKGuMwGz"></path><linearGradient id="gradientb1KNbJ5UK" gradientUnits="userSpaceOnUse" x1="382.38" y1="327.85" x2="388.33" y2="347.8"><stop style="stop-color: #ff9458;stop-opacity: 1" offset="0%"></stop><stop style="stop-color: #ff5656;stop-opacity: 1" offset="100%"></stop></linearGradient><path d="M407.27 362.43C404.41 361.21 381.56 351.41 378.7 350.19C377.73 352.1 376.62 353.99 375.46 355.8C377.12 357.04 385.41 363.25 400.34 374.44C403.61 369.24 405.92 365.24 407.27 362.43Z" id="aDx9XcOKd"></path><linearGradient id="gradientj73swc4y9e" gradientUnits="userSpaceOnUse" x1="373.5" y1="349.51" x2="386.78" y2="377.46"><stop style="stop-color: #ff9458;stop-opacity: 1" offset="0%"></stop><stop style="stop-color: #ff5656;stop-opacity: 1" offset="100%"></stop></linearGradient><path d="M387.5 389.71C385.23 387.58 367.1 370.55 364.84 368.42C363.24 369.91 361.6 371.28 359.87 372.58C361 374.31 366.67 382.99 376.87 398.61C381.72 394.81 385.27 391.85 387.5 389.71Z" id="b1jl3pN6Wk"></path><linearGradient id="gradientc4YkwPWONF" gradientUnits="userSpaceOnUse" x1="358.16" y1="367.57" x2="378.01" y2="396.71"><stop style="stop-color: #ff9458;stop-opacity: 1" offset="0%"></stop><stop style="stop-color: #ff5656;stop-opacity: 1" offset="100%"></stop></linearGradient><path d="M346.57 413.36C351.05 412.1 355.39 410.51 359.6 408.62C358.2 405.84 346.98 383.66 345.57 380.89C343.6 381.72 341.58 382.45 339.5 383.1C340.92 389.15 345.87 410.34 346.57 413.36Z" id="amSl0pFJ7"></path><linearGradient id="gradientd3RGn6eyap" gradientUnits="userSpaceOnUse" x1="338.26" y1="379.97" x2="361.2" y2="402.75"><stop style="stop-color: #ff9458;stop-opacity: 1" offset="0%"></stop><stop style="stop-color: #ff5656;stop-opacity: 1" offset="100%"></stop></linearGradient><path d="M316.76 385.93C316.39 389.02 313.41 413.7 313.04 416.79C317.71 417.11 322.35 417.11 326.91 416.79C326.54 413.7 323.58 388.99 323.21 385.9C322.13 385.98 321.05 386.01 319.97 386.01C318.9 386.01 317.82 385.98 316.76 385.93Z" id="e1Ja8Ssjps"></path><linearGradient id="gradienta27wf2ZYXp" gradientUnits="userSpaceOnUse" x1="312.18" y1="385.03" x2="332.99" y2="399.9"><stop style="stop-color: #ff9458;stop-opacity: 1" offset="0%"></stop><stop style="stop-color: #ff5656;stop-opacity: 1" offset="100%"></stop></linearGradient><path d="M293.38 413.34C294.08 410.31 299.74 386.12 300.44 383.1C298.37 382.45 296.34 381.72 294.37 380.89C293.44 382.73 288.76 391.97 280.35 408.59C286.03 410.89 290.37 412.47 293.38 413.34Z" id="grB8Q0UY6"></path><linearGradient id="gradientcihcxOZWC" gradientUnits="userSpaceOnUse" x1="279.1" y1="379.97" x2="302.03" y2="402.75"><stop style="stop-color: #ff9458;stop-opacity: 1" offset="0%"></stop><stop style="stop-color: #ff5656;stop-opacity: 1" offset="100%"></stop></linearGradient><path d="M252.43 389.65C255.72 392.86 259.28 395.86 263.05 398.58C264.75 395.98 278.35 375.2 280.05 372.6C278.35 371.31 276.68 369.91 275.09 368.42C270.55 372.67 254.69 387.53 252.43 389.65Z" id="aPgpY37Yx"></path><linearGradient id="gradientd2SMxASjCm" gradientUnits="userSpaceOnUse" x1="250.72" y1="367.58" x2="270.53" y2="396.7"><stop style="stop-color: #ff9458;stop-opacity: 1" offset="0%"></stop><stop style="stop-color: #ff5656;stop-opacity: 1" offset="100%"></stop></linearGradient><path d="M261.19 350.16C258.34 351.38 235.53 361.11 232.68 362.33C234.7 366.51 237.02 370.53 239.61 374.36C241.27 373.12 249.55 366.92 264.46 355.77C262.95 353.31 261.86 351.44 261.19 350.16Z" id="a2k22a3dfG"></path><linearGradient id="gradientcwa3dIm5Z" gradientUnits="userSpaceOnUse" x1="230.71" y1="349.48" x2="243.96" y2="377.38"><stop style="stop-color: #ff9458;stop-opacity: 1" offset="0%"></stop><stop style="stop-color: #ff5656;stop-opacity: 1" offset="100%"></stop></linearGradient><path d="M255.53 334.65C255.07 332.54 254.66 330.41 254.42 328.25C251.32 328.42 226.55 329.78 223.45 329.95C223.94 334.57 224.75 339.13 225.85 343.6C231.79 341.81 252.56 335.54 255.53 334.65Z" id="axhCOzjsB"></path><linearGradient id="gradientaRN2sDqZf" gradientUnits="userSpaceOnUse" x1="221.47" y1="327.82" x2="227.41" y2="347.74"><stop style="stop-color: #ff9458;stop-opacity: 1" offset="0%"></stop><stop style="stop-color: #ff5656;stop-opacity: 1" offset="100%"></stop></linearGradient><path d="M224.48 303.14C224.07 305.43 223.75 307.7 223.51 309.96C226.6 310.14 251.33 311.52 254.42 311.69C254.69 309.53 255.07 307.4 255.55 305.3C253.58 304.7 243.71 301.7 225.93 296.31C225.23 299.32 224.75 301.59 224.48 303.14Z" id="hiEEXXyhx"></path><linearGradient id="gradientb1p8dBPyYm" gradientUnits="userSpaceOnUse" x1="221.53" y1="295.88" x2="227.49" y2="315.82"><stop style="stop-color: #ff9458;stop-opacity: 1" offset="0%"></stop><stop style="stop-color: #ff5656;stop-opacity: 1" offset="100%"></stop></linearGradient><path d="M232.76 277.57C235.61 278.79 258.37 288.54 261.22 289.76C262.22 287.84 263.3 285.96 264.48 284.15C262.83 282.91 254.57 276.71 239.69 265.56C236.42 270.78 234.11 274.78 232.76 277.57Z" id="cMXp5VzEr"></path><linearGradient id="gradientb36CBDBjw" gradientUnits="userSpaceOnUse" x1="230.8" y1="264.88" x2="244.05" y2="292.77"><stop style="stop-color: #ff9458;stop-opacity: 1" offset="0%"></stop><stop style="stop-color: #ff5656;stop-opacity: 1" offset="100%"></stop></linearGradient><path d="M252.51 250.29C254.76 252.41 272.83 269.35 275.09 271.47C276.68 269.99 278.32 268.61 280.08 267.29C278.95 265.56 273.31 256.93 263.16 241.39C258.29 245.19 254.74 248.15 252.51 250.29Z" id="b72EbPfwsT"></path><linearGradient id="gradientb3AYVyNHYP" gradientUnits="userSpaceOnUse" x1="250.8" y1="240.55" x2="270.56" y2="269.61"><stop style="stop-color: #ff9458;stop-opacity: 1" offset="0%"></stop><stop style="stop-color: #ff5656;stop-opacity: 1" offset="100%"></stop></linearGradient><path d="M280.45 231.44C281.85 234.2 293.01 256.3 294.4 259.06C296.4 258.22 298.42 257.47 300.5 256.85C300.03 254.84 297.68 244.78 293.46 226.69C287.58 228.6 283.24 230.18 280.45 231.44Z" id="b5x5Nb9T9"></path><linearGradient id="gradienta2doWvsgM" gradientUnits="userSpaceOnUse" x1="279.21" y1="225.78" x2="302.08" y2="248.5"><stop style="stop-color: #ff9458;stop-opacity: 1" offset="0%"></stop><stop style="stop-color: #ff5656;stop-opacity: 1" offset="100%"></stop></linearGradient></defs><g><g><g><use xlink:href="#hybrV0vFJ" opacity="1" fill="url(#gradienta22vNNvKmj)"></use><g><use xlink:href="#hybrV0vFJ" opacity="1" fill-opacity="0" stroke="#000000" stroke-width="1" stroke-opacity="0"></use></g></g><g><use xlink:href="#cC40VQwyt" opacity="1" fill="url(#gradienth1Pg2VTbSy)"></use><g><use xlink:href="#cC40VQwyt" opacity="1" fill-opacity="0" stroke="#000000" stroke-width="1" stroke-opacity="0"></use></g></g><g><use xlink:href="#b4d8YDGZBh" opacity="1" fill="url(#gradientbVmwiiRxH)"></use><g><use xlink:href="#b4d8YDGZBh" opacity="1" fill-opacity="0" stroke="#000000" stroke-width="1" stroke-opacity="0"></use></g></g><g><use xlink:href="#a22UcGpjai" opacity="1" fill="url(#gradientf1Oi1HRPf)"></use><g><use xlink:href="#a22UcGpjai" opacity="1" fill-opacity="0" stroke="#000000" stroke-width="1" stroke-opacity="0"></use></g></g><g><use xlink:href="#jdfAM4Z3" opacity="1" fill="url(#gradientaiWe3N1KJ)"></use><g><use xlink:href="#jdfAM4Z3" opacity="1" fill-opacity="0" stroke="#000000" stroke-width="1" stroke-opacity="0"></use></g></g><g><use xlink:href="#a4jX0xa7ee" opacity="1" fill="url(#gradientavYPcO1Xp)"></use><g><use xlink:href="#a4jX0xa7ee" opacity="1" fill-opacity="0" stroke="#000000" stroke-width="1" stroke-opacity="0"></use></g></g><g><use xlink:href="#b6kqgogFlS" opacity="1" fill="url(#gradientb75PnwRRg)"></use><g><use xlink:href="#b6kqgogFlS" opacity="1" fill-opacity="0" stroke="#000000" stroke-width="1" stroke-opacity="0"></use></g></g><g><use xlink:href="#l290NIpvly" opacity="1" fill="url(#gradientaPcZ1LnqU)"></use><g><use xlink:href="#l290NIpvly" opacity="1" fill-opacity="0" stroke="#000000" stroke-width="1" stroke-opacity="0"></use></g></g><g><use xlink:href="#h10fFmsGI0" opacity="1" fill="url(#gradientahgDmx4aH)"></use><g><use xlink:href="#h10fFmsGI0" opacity="1" fill-opacity="0" stroke="#000000" stroke-width="1" stroke-opacity="0"></use></g></g><g><use xlink:href="#cRcBDcist" opacity="1" fill="url(#gradiente9fgLvOui)"></use><g><use xlink:href="#cRcBDcist" opacity="1" fill-opacity="0" stroke="#000000" stroke-width="1" stroke-opacity="0"></use></g></g><g><use xlink:href="#icP0xwbmS" opacity="1" fill="url(#gradiente1aRw1DgK)"></use><g><use xlink:href="#icP0xwbmS" opacity="1" fill-opacity="0" stroke="#000000" stroke-width="1" stroke-opacity="0"></use></g></g><g><use xlink:href="#eJwvD9iZy" opacity="1" fill="url(#gradientc18jDDPVvM)"></use><g><use xlink:href="#eJwvD9iZy" opacity="1" fill-opacity="0" stroke="#000000" stroke-width="1" stroke-opacity="0"></use></g></g><g><use xlink:href="#aANAURSiD" opacity="1" fill="url(#gradientf4FmvdMJMZ)"></use><g><use xlink:href="#aANAURSiD" opacity="1" fill-opacity="0" stroke="#000000" stroke-width="1" stroke-opacity="0"></use></g></g><g><use xlink:href="#clHcDEJJ" opacity="1" fill="url(#gradientb5KB2vQya2)"></use><g><use xlink:href="#clHcDEJJ" opacity="1" fill-opacity="0" stroke="#000000" stroke-width="1" stroke-opacity="0"></use></g></g><g><use xlink:href="#e1NchCSKwQ" opacity="1" fill="url(#gradientce5P3y2mr)"></use><g><use xlink:href="#e1NchCSKwQ" opacity="1" fill-opacity="0" stroke="#000000" stroke-width="1" stroke-opacity="0"></use></g></g><g><use xlink:href="#c4ppodQOSg" opacity="1" fill="url(#gradienti19fWlVYzj)"></use><g><use xlink:href="#c4ppodQOSg" opacity="1" fill-opacity="0" stroke="#000000" stroke-width="1" stroke-opacity="0"></use></g></g><g><use xlink:href="#e1Bzc9xNet" opacity="1" fill="url(#gradientasL13hnYv)"></use><g><use xlink:href="#e1Bzc9xNet" opacity="1" fill-opacity="0" stroke="#000000" stroke-width="1" stroke-opacity="0"></use></g></g><g><use xlink:href="#f4JlTHQUuf" opacity="1" fill="url(#gradientb12aZ3GGje)"></use><g><use xlink:href="#f4JlTHQUuf" opacity="1" fill-opacity="0" stroke="#000000" stroke-width="1" stroke-opacity="0"></use></g></g><g><use xlink:href="#b1dsktNAtW" opacity="1" fill="url(#gradientfblHFzoFT)"></use><g><use xlink:href="#b1dsktNAtW" opacity="1" fill-opacity="0" stroke="#000000" stroke-width="1" stroke-opacity="0"></use></g></g><g><use xlink:href="#f3ktThKb" opacity="1" fill="url(#gradientc1YVnlez9)"></use><g><use xlink:href="#f3ktThKb" opacity="1" fill-opacity="0" stroke="#000000" stroke-width="1" stroke-opacity="0"></use></g></g><g><use xlink:href="#beJklru4D" opacity="1" fill="url(#gradientdm3Gqw3g6)"></use><g><use xlink:href="#beJklru4D" opacity="1" fill-opacity="0" stroke="#000000" stroke-width="1" stroke-opacity="0"></use></g></g><g><use xlink:href="#h6HWriFiU" opacity="1" fill="url(#gradientd2L3VS4XNi)"></use><g><use xlink:href="#h6HWriFiU" opacity="1" fill-opacity="0" stroke="#000000" stroke-width="1" stroke-opacity="0"></use></g></g><g><use xlink:href="#a69CQVMwOa" opacity="1" fill="url(#gradientb2gbIcV6r1)"></use><g><use xlink:href="#a69CQVMwOa" opacity="1" fill-opacity="0" stroke="#000000" stroke-width="1" stroke-opacity="0"></use></g></g><g><use xlink:href="#c2EAePz0LY" opacity="1" fill="url(#gradientd8THL3xL3)"></use><g><use xlink:href="#c2EAePz0LY" opacity="1" fill-opacity="0" stroke="#000000" stroke-width="1" stroke-opacity="0"></use></g></g><g><use xlink:href="#c1H30PtPoP" opacity="1" fill="url(#gradientaciraUKdl)"></use><g><use xlink:href="#c1H30PtPoP" opacity="1" fill-opacity="0" stroke="#000000" stroke-width="1" stroke-opacity="0"></use></g></g><g><use xlink:href="#b58SaWimip" opacity="1" fill="url(#gradientbKVrKEiK8)"></use><g><use xlink:href="#b58SaWimip" opacity="1" fill-opacity="0" stroke="#000000" stroke-width="1" stroke-opacity="0"></use></g></g><g><use xlink:href="#a30Zcgbi4M" opacity="1" fill="url(#gradientj2KbFXO1zw)"></use><g><use xlink:href="#a30Zcgbi4M" opacity="1" fill-opacity="0" stroke="#000000" stroke-width="1" stroke-opacity="0"></use></g></g><g><use xlink:href="#bBWeA0eIu" opacity="1" fill="url(#gradiente1y6EnnAHH)"></use><g><use xlink:href="#bBWeA0eIu" opacity="1" fill-opacity="0" stroke="#000000" stroke-width="1" stroke-opacity="0"></use></g></g><g><use xlink:href="#a2lyr4Lsyp" opacity="1" fill="url(#gradientj1U0rWiVtF)"></use><g><use xlink:href="#a2lyr4Lsyp" opacity="1" fill-opacity="0" stroke="#000000" stroke-width="1" stroke-opacity="0"></use></g></g><g><use xlink:href="#bfNjMjbuI" opacity="1" fill="url(#gradientbxqkJAATN)"></use><g><use xlink:href="#bfNjMjbuI" opacity="1" fill-opacity="0" stroke="#000000" stroke-width="1" stroke-opacity="0"></use></g></g><g><use xlink:href="#c1w7XjBjY" opacity="1" fill="url(#gradiente4wtRItpa3)"></use><g><use xlink:href="#c1w7XjBjY" opacity="1" fill-opacity="0" stroke="#000000" stroke-width="1" stroke-opacity="0"></use></g></g><g><use xlink:href="#bbq1NDZBK" opacity="1" fill="url(#gradientc2WN1Jol6t)"></use><g><use xlink:href="#bbq1NDZBK" opacity="1" fill-opacity="0" stroke="#000000" stroke-width="1" stroke-opacity="0"></use></g></g><g><use xlink:href="#fjLnvnHyb" opacity="1" fill="url(#gradienta83UMnfI7L)"></use><g><use xlink:href="#fjLnvnHyb" opacity="1" fill-opacity="0" stroke="#000000" stroke-width="1" stroke-opacity="0"></use></g></g><g><use xlink:href="#d58EL4S9Bn" opacity="1" fill="url(#gradientcdY5Xfx6O)"></use><g><use xlink:href="#d58EL4S9Bn" opacity="1" fill-opacity="0" stroke="#000000" stroke-width="1" stroke-opacity="0"></use></g></g><g><use xlink:href="#hGER3zuX8" opacity="1" fill="url(#gradientb5rng6avW)"></use><g><use xlink:href="#hGER3zuX8" opacity="1" fill-opacity="0" stroke="#000000" stroke-width="1" stroke-opacity="0"></use></g></g><g><use xlink:href="#c44EVggjgl" opacity="1" fill="url(#gradientb2dNDscPbe)"></use><g><use xlink:href="#c44EVggjgl" opacity="1" fill-opacity="0" stroke="#000000" stroke-width="1" stroke-opacity="0"></use></g></g><g><use xlink:href="#b243mtXKib" opacity="1" fill="url(#gradientc197CTGiTr)"></use><g><use xlink:href="#b243mtXKib" opacity="1" fill-opacity="0" stroke="#000000" stroke-width="1" stroke-opacity="0"></use></g></g><g><use xlink:href="#a6rTXqUIg3" opacity="1" fill="url(#gradienta8aHVsqry)"></use><g><use xlink:href="#a6rTXqUIg3" opacity="1" fill-opacity="0" stroke="#000000" stroke-width="1" stroke-opacity="0"></use></g></g><g><use xlink:href="#c9x1t5IAt" opacity="1" fill="url(#gradientcfhphoVjp)"></use><g><use xlink:href="#c9x1t5IAt" opacity="1" fill-opacity="0" stroke="#000000" stroke-width="1" stroke-opacity="0"></use></g></g><g><use xlink:href="#a3twps3Hqr" opacity="1" fill="url(#gradientb9EtjNXz6)"></use><g><use xlink:href="#a3twps3Hqr" opacity="1" fill-opacity="0" stroke="#000000" stroke-width="1" stroke-opacity="0"></use></g></g><g><use xlink:href="#i8MrPlF6P" opacity="1" fill="url(#gradientbdcH5EF9K)"></use><g><use xlink:href="#i8MrPlF6P" opacity="1" fill-opacity="0" stroke="#000000" stroke-width="1" stroke-opacity="0"></use></g></g><g><use xlink:href="#atKGuMwGz" opacity="1" fill="url(#gradientb1KNbJ5UK)"></use><g><use xlink:href="#atKGuMwGz" opacity="1" fill-opacity="0" stroke="#000000" stroke-width="1" stroke-opacity="0"></use></g></g><g><use xlink:href="#aDx9XcOKd" opacity="1" fill="url(#gradientj73swc4y9e)"></use><g><use xlink:href="#aDx9XcOKd" opacity="1" fill-opacity="0" stroke="#000000" stroke-width="1" stroke-opacity="0"></use></g></g><g><use xlink:href="#b1jl3pN6Wk" opacity="1" fill="url(#gradientc4YkwPWONF)"></use><g><use xlink:href="#b1jl3pN6Wk" opacity="1" fill-opacity="0" stroke="#000000" stroke-width="1" stroke-opacity="0"></use></g></g><g><use xlink:href="#amSl0pFJ7" opacity="1" fill="url(#gradientd3RGn6eyap)"></use><g><use xlink:href="#amSl0pFJ7" opacity="1" fill-opacity="0" stroke="#000000" stroke-width="1" stroke-opacity="0"></use></g></g><g><use xlink:href="#e1Ja8Ssjps" opacity="1" fill="url(#gradienta27wf2ZYXp)"></use><g><use xlink:href="#e1Ja8Ssjps" opacity="1" fill-opacity="0" stroke="#000000" stroke-width="1" stroke-opacity="0"></use></g></g><g><use xlink:href="#grB8Q0UY6" opacity="1" fill="url(#gradientcihcxOZWC)"></use><g><use xlink:href="#grB8Q0UY6" opacity="1" fill-opacity="0" stroke="#000000" stroke-width="1" stroke-opacity="0"></use></g></g><g><use xlink:href="#aPgpY37Yx" opacity="1" fill="url(#gradientd2SMxASjCm)"></use><g><use xlink:href="#aPgpY37Yx" opacity="1" fill-opacity="0" stroke="#000000" stroke-width="1" stroke-opacity="0"></use></g></g><g><use xlink:href="#a2k22a3dfG" opacity="1" fill="url(#gradientcwa3dIm5Z)"></use><g><use xlink:href="#a2k22a3dfG" opacity="1" fill-opacity="0" stroke="#000000" stroke-width="1" stroke-opacity="0"></use></g></g><g><use xlink:href="#axhCOzjsB" opacity="1" fill="url(#gradientaRN2sDqZf)"></use><g><use xlink:href="#axhCOzjsB" opacity="1" fill-opacity="0" stroke="#000000" stroke-width="1" stroke-opacity="0"></use></g></g><g><use xlink:href="#hiEEXXyhx" opacity="1" fill="url(#gradientb1p8dBPyYm)"></use><g><use xlink:href="#hiEEXXyhx" opacity="1" fill-opacity="0" stroke="#000000" stroke-width="1" stroke-opacity="0"></use></g></g><g><use xlink:href="#cMXp5VzEr" opacity="1" fill="url(#gradientb36CBDBjw)"></use><g><use xlink:href="#cMXp5VzEr" opacity="1" fill-opacity="0" stroke="#000000" stroke-width="1" stroke-opacity="0"></use></g></g><g><use xlink:href="#b72EbPfwsT" opacity="1" fill="url(#gradientb3AYVyNHYP)"></use><g><use xlink:href="#b72EbPfwsT" opacity="1" fill-opacity="0" stroke="#000000" stroke-width="1" stroke-opacity="0"></use></g></g><g><use xlink:href="#b5x5Nb9T9" opacity="1" fill="url(#gradienta2doWvsgM)"></use><g><use xlink:href="#b5x5Nb9T9" opacity="1" fill-opacity="0" stroke="#000000" stroke-width="1" stroke-opacity="0"></use></g></g></g></g></svg>