<svg width="2732" height="2732" viewBox="0 0 2732 2732" fill="none" xmlns="http://www.w3.org/2000/svg">
<rect width="2732" height="2732" fill="white"/>
<rect width="2732" height="2732" fill="url(#paint0_linear)"/>
<path d="M1029.65 887.007L878.812 656.187C833.225 687.578 790.754 723.24 752.092 762.595L953.135 951.174C976.679 927.631 1002.3 906.165 1029.65 887.007Z" fill="white"/>
<path d="M886.198 1030.92L665.534 865.54C633.566 910.319 605.752 958.214 582.67 1008.88L836.225 1117.36C850.421 1087.01 867.155 1058.04 886.198 1030.92Z" fill="white"/>
<path d="M800.448 1215.12L536.506 1135.25C521.965 1187.76 512.27 1242.24 508 1298.33L783.252 1313.56C786.253 1279.86 792.139 1246.97 800.448 1215.12Z" fill="white"/>
<path d="M783.252 1417.66L508 1432.89C512.27 1488.87 521.965 1543.46 536.506 1595.97L800.448 1516.1C792.139 1484.25 786.253 1451.36 783.252 1417.66Z" fill="white"/>
<path d="M836.11 1613.86L582.555 1722.23C605.637 1772.78 633.45 1820.79 665.419 1865.57L886.082 1700.3C867.155 1673.06 850.421 1644.21 836.11 1613.86Z" fill="white"/>
<path d="M953.135 1780.05L752.092 1968.63C790.754 2007.98 833.225 2043.76 878.812 2075.03L1029.65 1844.21C1002.3 1825.06 976.679 1803.59 953.135 1780.05Z" fill="white"/>
<path d="M995.26 2142.43C1044.66 2166.09 1096.7 2185.14 1150.83 2199.1L1213.61 1930.54C1181.18 1921.77 1149.79 1910.34 1119.79 1896.38L995.26 2142.43Z" fill="white"/>
<path d="M1366.07 1950.62C1349.22 1950.62 1332.6 1949.93 1316.22 1948.55L1283.32 2222.3C1310.56 2224.95 1338.14 2226.22 1366.07 2226.22C1394 2226.22 1421.58 2224.84 1448.82 2222.3L1416.05 1948.55C1399.54 1949.93 1382.92 1950.62 1366.07 1950.62Z" fill="white"/>
<path d="M1518.53 1930.54L1581.31 2199.1C1635.32 2185.14 1687.37 2166.09 1736.77 2142.43L1612.24 1896.38C1582.46 1910.34 1551.07 1921.89 1518.53 1930.54Z" fill="white"/>
<path d="M1702.61 1844.21L1853.45 2075.03C1899.03 2043.64 1941.51 2007.98 1980.17 1968.63L1779.12 1780.05C1755.46 1803.59 1729.84 1825.06 1702.61 1844.21Z" fill="white"/>
<path d="M1845.94 1700.3L2066.61 1865.57C2098.58 1820.79 2126.39 1772.89 2149.47 1722.23L1895.92 1613.86C1881.72 1644.21 1864.99 1673.06 1845.94 1700.3Z" fill="white"/>
<path d="M1931.7 1515.99L2195.64 1595.85C2210.18 1543.34 2219.87 1488.87 2224.14 1432.78L1948.89 1417.55C1945.89 1451.36 1940 1484.25 1931.7 1515.99Z" fill="white"/>
<path d="M1948.89 1313.56L2224.14 1298.33C2219.87 1242.35 2210.18 1187.76 2195.64 1135.25L1931.7 1215.12C1940 1246.97 1945.89 1279.86 1948.89 1313.56Z" fill="white"/>
<path d="M1895.92 1117.36L2149.47 1008.88C2126.39 958.33 2098.58 910.319 2066.61 865.54L1845.94 1030.92C1864.99 1058.04 1881.72 1087.01 1895.92 1117.36Z" fill="white"/>
<path d="M1779.01 951.174L1980.05 762.595C1941.39 723.24 1898.92 687.463 1853.33 656.187L1702.49 887.007C1729.84 906.165 1755.47 927.631 1779.01 951.174Z" fill="white"/>
<path d="M1736.88 588.787C1687.49 565.128 1635.44 546.086 1581.31 532.121L1518.53 800.679C1550.96 809.451 1582.35 820.876 1612.35 834.841L1736.88 588.787Z" fill="white"/>
<path d="M1366.07 780.598C1382.92 780.598 1399.54 781.291 1416.05 782.676L1448.82 508.924C1421.58 506.269 1394 505 1366.07 505C1338.14 505 1310.56 506.385 1283.32 508.924L1316.22 782.676C1332.6 781.291 1349.22 780.598 1366.07 780.598Z" fill="white"/>
<path d="M1213.61 800.564L1150.83 532.121C1096.82 545.97 1044.77 565.128 995.26 588.787L1119.79 834.841C1149.68 820.876 1181.07 809.335 1213.61 800.564Z" fill="white"/>
<path opacity="0.7" d="M1323.48 952.79L1314.14 782.791C1297.63 784.291 1281.13 786.484 1264.63 789.369C1248.12 792.255 1231.73 795.832 1215.81 800.103L1265.09 963.061C1284.13 958.329 1303.63 954.867 1323.48 952.79Z" fill="white"/>
<path opacity="0.7" d="M1408.89 952.79C1428.85 954.867 1448.24 958.329 1467.29 963.061L1516.68 800.103C1484.71 791.562 1451.82 785.676 1418.35 782.791L1408.89 952.79Z" fill="white"/>
<path opacity="0.7" d="M1547.5 992.26C1565.38 1000.92 1582.47 1010.84 1598.85 1021.92L1700.88 885.737C1673.52 866.694 1644.67 849.96 1614.43 835.765L1547.5 992.26Z" fill="white"/>
<path opacity="0.7" d="M1664.18 1076.86C1677.91 1091.05 1690.72 1106.17 1702.26 1122.21L1844.91 1029.08C1825.63 1001.72 1804.17 976.102 1780.62 952.674L1664.18 1076.86Z" fill="white"/>
<path opacity="0.7" d="M1896.96 1119.33L1744.96 1196.19C1753.04 1214.19 1759.85 1232.77 1765.27 1251.93L1930.89 1213.27C1922.23 1180.61 1910.81 1149.22 1896.96 1119.33Z" fill="white"/>
<path opacity="0.7" d="M1949.01 1315.75L1780.05 1335.95C1780.74 1345.76 1781.09 1355.69 1781.09 1365.61C1781.09 1375.54 1780.74 1385.46 1780.05 1395.27L1949.12 1415.58C1951.89 1382.92 1952.01 1349.45 1949.01 1315.75Z" fill="white"/>
<path opacity="0.7" d="M1931 1518.3L1765.39 1479.52C1759.97 1498.68 1753.16 1517.37 1745.08 1535.26L1896.84 1612.01C1910.81 1581.89 1922.23 1550.61 1931 1518.3Z" fill="white"/>
<path opacity="0.7" d="M1844.68 1702.15L1702.38 1609.13C1690.72 1625.17 1678.02 1640.4 1664.18 1654.6L1780.51 1778.78C1804.05 1755 1825.52 1729.38 1844.68 1702.15Z" fill="white"/>
<path opacity="0.7" d="M1700.76 1845.6L1598.85 1709.42C1582.58 1720.49 1565.38 1730.42 1547.5 1739.08L1614.32 1895.46C1644.67 1881.38 1673.64 1864.53 1700.76 1845.6Z" fill="white"/>
<path opacity="0.7" d="M1408.66 1778.66L1418.01 1948.43C1434.39 1946.93 1451.01 1944.74 1467.52 1941.85C1484.14 1938.97 1500.41 1935.39 1516.34 1931.12L1467.17 1768.39C1448.13 1773.12 1428.62 1776.58 1408.66 1778.66Z" fill="white"/>
<path opacity="0.7" d="M1323.26 1778.55C1303.29 1776.47 1283.79 1773.01 1264.86 1768.27L1215.58 1931C1247.55 1939.54 1280.44 1945.43 1313.91 1948.43L1323.26 1778.55Z" fill="white"/>
<path opacity="0.7" d="M1184.65 1739.08C1166.76 1730.42 1149.56 1720.38 1133.29 1709.3L1031.38 1845.37C1058.73 1864.41 1087.59 1881.15 1117.82 1895.34L1184.65 1739.08Z" fill="white"/>
<path opacity="0.7" d="M951.519 1778.43L1067.97 1654.37C1054.23 1640.17 1041.42 1624.94 1029.88 1608.89L887.352 1701.91C906.51 1729.38 927.976 1755 951.519 1778.43Z" fill="white"/>
<path opacity="0.7" d="M987.066 1535.03C978.987 1517.03 972.178 1498.45 966.754 1479.29L801.141 1517.95C809.912 1550.61 821.337 1582 835.186 1611.78L987.066 1535.03Z" fill="white"/>
<path opacity="0.7" d="M783.138 1415.35L952.098 1395.15C951.405 1385.46 951.059 1375.65 951.059 1365.73C951.059 1355.68 951.405 1345.76 952.098 1335.83L783.022 1315.52C780.252 1348.3 780.137 1381.65 783.138 1415.35Z" fill="white"/>
<path opacity="0.7" d="M801.141 1212.92L966.869 1251.7C972.293 1232.54 979.102 1213.85 987.181 1195.96L835.417 1119.1C821.337 1149.22 809.912 1180.61 801.141 1212.92Z" fill="white"/>
<path opacity="0.7" d="M887.467 1029.08L1029.88 1122.21C1041.54 1106.17 1054.23 1091.05 1068.08 1076.86L951.634 952.674C928.091 976.218 906.625 1001.84 887.467 1029.08Z" fill="white"/>
<path opacity="0.7" d="M1184.88 992.26L1117.94 835.649C1087.47 849.96 1058.62 866.694 1031.5 885.621L1133.64 1021.92C1149.79 1010.84 1166.99 1000.92 1184.88 992.26Z" fill="white"/>
<path opacity="0.4" d="M1336.64 951.635L1352.34 1083.2C1356.84 1082.97 1361.34 1082.86 1365.96 1082.86C1370.69 1082.86 1375.42 1082.97 1380.15 1083.2L1395.97 951.635C1376 950.25 1356.15 950.25 1336.64 951.635Z" fill="white"/>
<path opacity="0.4" d="M1479.98 966.523L1449.74 1095.44C1458.63 1098.21 1467.4 1101.32 1475.83 1105.01L1535.72 986.836C1517.84 978.872 1499.25 972.063 1479.98 966.523Z" fill="white"/>
<path opacity="0.4" d="M1558.23 1158.33L1655.06 1067.62C1640.98 1053.89 1625.74 1041.08 1609.7 1029.42L1537.11 1140.45C1544.38 1146.1 1551.42 1152.1 1558.23 1158.33Z" fill="white"/>
<path opacity="0.4" d="M1739.42 1184.53C1730.77 1166.76 1720.84 1149.56 1709.76 1133.17L1603.58 1212.58C1608.55 1220.31 1613.16 1228.39 1617.43 1236.58L1739.42 1184.53Z" fill="white"/>
<path opacity="0.4" d="M1768.73 1264.63L1641.67 1303.06C1643.63 1312.06 1645.36 1321.18 1646.4 1330.41L1779.01 1323.14C1777.04 1303.29 1773.47 1283.78 1768.73 1264.63Z" fill="white"/>
<path opacity="0.4" d="M1774.74 1437.86C1776.47 1428.05 1777.85 1418.24 1778.89 1408.43L1646.28 1401.04C1645.13 1410.27 1643.51 1419.39 1641.44 1428.28L1768.5 1466.82C1771.04 1457.36 1773.12 1447.67 1774.74 1437.86Z" fill="white"/>
<path opacity="0.4" d="M1709.76 1598.51C1720.84 1582.23 1730.77 1565.15 1739.42 1547.15L1617.2 1494.75C1613.05 1502.95 1608.32 1511.03 1603.35 1518.76L1709.76 1598.51Z" fill="white"/>
<path opacity="0.4" d="M1609.36 1701.91C1625.28 1690.37 1640.52 1677.56 1654.83 1663.83L1557.88 1572.77C1551.07 1579.12 1544.03 1585 1536.65 1590.54L1609.36 1701.91Z" fill="white"/>
<path opacity="0.4" d="M1449.51 1635.55L1479.75 1765.04C1498.91 1759.62 1517.49 1752.81 1535.49 1744.73L1475.48 1626.09C1467.05 1629.67 1458.4 1632.78 1449.51 1635.55Z" fill="white"/>
<path opacity="0.4" d="M1365.96 1648.02C1361.34 1648.02 1356.73 1647.9 1352.23 1647.67L1336.3 1779.7C1356.26 1781.09 1376.12 1781.09 1395.62 1779.7L1379.81 1647.56C1375.19 1647.9 1370.58 1648.02 1365.96 1648.02Z" fill="white"/>
<path opacity="0.4" d="M1196.42 1744.62C1214.31 1752.58 1232.89 1759.39 1252.16 1764.93L1282.4 1635.55C1273.51 1632.78 1264.86 1629.67 1256.43 1626.09L1196.42 1744.62Z" fill="white"/>
<path opacity="0.4" d="M1173.91 1572.77L1076.97 1663.6C1091.05 1677.33 1106.28 1690.14 1122.44 1701.8L1195.15 1590.66C1187.88 1585.12 1180.72 1579.12 1173.91 1572.77Z" fill="white"/>
<path opacity="0.4" d="M1128.44 1518.64C1123.48 1510.91 1118.75 1502.83 1114.48 1494.64L992.49 1546.69C1001.15 1564.58 1011.07 1581.77 1022.15 1598.16L1128.44 1518.64Z" fill="white"/>
<path opacity="0.4" d="M963.291 1466.59L1090.24 1428.28C1088.28 1419.28 1086.55 1410.16 1085.51 1400.93L953.02 1408.2C955.097 1427.93 958.559 1447.44 963.291 1466.59Z" fill="white"/>
<path opacity="0.4" d="M963.637 1264.28C961.213 1273.86 959.136 1283.55 957.405 1293.48C955.673 1303.29 954.289 1312.98 953.25 1322.68L1085.51 1330.06C1086.66 1320.83 1088.28 1311.71 1090.36 1302.71L963.637 1264.28Z" fill="white"/>
<path opacity="0.4" d="M1022.5 1132.71C1011.53 1148.99 1001.49 1166.18 992.836 1184.07L1114.59 1236.24C1118.86 1228.04 1123.48 1219.96 1128.56 1212.23L1022.5 1132.71Z" fill="white"/>
<path opacity="0.4" d="M1122.9 1029.31C1106.86 1040.96 1091.63 1053.66 1077.32 1067.39L1173.91 1157.99C1180.72 1151.64 1187.76 1145.75 1195.27 1140.1L1122.9 1029.31Z" fill="white"/>
<path opacity="0.4" d="M1252.51 966.408C1233.35 971.832 1214.77 978.641 1196.88 986.72L1256.55 1104.9C1265.09 1101.32 1273.74 1098.09 1282.63 1095.44L1252.51 966.408Z" fill="white"/>
<defs>
<linearGradient id="paint0_linear" x1="-168.831" y1="-76.7416" x2="1563.65" y2="2703.21" gradientUnits="userSpaceOnUse">
<stop stop-color="#FF9458"/>
<stop offset="1" stop-color="#FF5656"/>
</linearGradient>
</defs>
</svg>
